<?xml version="1.0" standalone="no"?>
<!DOCTYPE svg PUBLIC "-//W3C//DTD SVG 20010904//EN"
 "http://www.w3.org/TR/2001/REC-SVG-20010904/DTD/svg10.dtd">
<svg version="1.0" xmlns="http://www.w3.org/2000/svg"
 width="64.000000pt" height="64.000000pt" viewBox="0 0 64.000000 64.000000"
 preserveAspectRatio="xMidYMid meet">
<metadata>
Created by potrace 1.16, written by Peter Selinger 2001-2019
</metadata>
<g transform="translate(0.000000,64.000000) scale(0.012500,-0.012500)"
fill="#000000" stroke="none">
<path d="M2177 4799 c-43 -25 -47 -53 -47 -349 l0 -280 -606 0 c-396 0 -612
-4 -625 -10 -45 -25 -49 -52 -49 -350 l0 -280 -286 0 c-176 0 -293 -4 -305
-10 -45 -25 -49 -52 -49 -350 l0 -280 -76 0 c-71 0 -77 -2 -106 -31 l-31 -30
6 -187 c15 -506 161 -905 436 -1195 242 -254 563 -407 976 -462 176 -24 559
-17 757 14 869 135 1636 631 2108 1363 l75 116 48 6 c119 16 306 94 430 178
77 53 187 157 242 230 37 49 45 68 45 103 0 53 -23 84 -93 124 -130 74 -301
123 -473 136 l-92 7 -12 42 c-32 107 -132 258 -232 351 -136 126 -203 131
-277 22 -110 -162 -164 -412 -132 -611 11 -64 10 -79 -4 -105 -20 -40 -63 -61
-125 -61 l-50 0 0 275 c0 293 -4 320 -49 345 -12 6 -129 10 -305 10 l-286 0 0
600 c0 643 0 643 -49 670 -26 14 -740 13 -764 -1z m593 -419 l0 -210 -210 0
-210 0 0 210 0 210 210 0 210 0 0 -210z m-1280 -640 l0 -210 -210 0 -210 0 0
210 0 210 210 0 210 0 0 -210z m640 0 l0 -210 -210 0 -210 0 0 210 0 210 210
0 210 0 0 -210z m640 0 l0 -210 -210 0 -210 0 0 210 0 210 210 0 210 0 0 -210z
m-1920 -640 l0 -210 -210 0 -210 0 0 210 0 210 210 0 210 0 0 -210z m640 0 l0
-210 -210 0 -210 0 0 210 0 210 210 0 210 0 0 -210z m640 0 l0 -210 -210 0
-210 0 0 210 0 210 210 0 210 0 0 -210z m640 0 l0 -210 -210 0 -210 0 0 210 0
210 210 0 210 0 0 -210z m640 0 l0 -210 -210 0 -210 0 0 210 0 210 210 0 210
0 0 -210z m-2245 -882 c132 -70 142 -264 17 -352 -131 -93 -321 9 -322 173 -1
151 169 250 305 179z"/>
</g>
</svg>
